<svg t="1697547306120" class="icon" viewBox="0 0 1024 1024" version="1.1" xmlns="http://www.w3.org/2000/svg" p-id="4624" width="200" height="200">
  <defs>
    <linearGradient id="gradientDark" x1="0%" y1="0%" x2="100%" y2="100%">
      <stop offset="0%" style="stop-color:#3730a3;stop-opacity:1" />
      <stop offset="50%" style="stop-color:#4338ca;stop-opacity:1" />
      <stop offset="100%" style="stop-color:#4f46e5;stop-opacity:1" />
    </linearGradient>
    <linearGradient id="gradientPrimary" x1="0%" y1="0%" x2="100%" y2="100%">
      <stop offset="0%" style="stop-color:#4f46e5;stop-opacity:1" />
      <stop offset="50%" style="stop-color:#6366f1;stop-opacity:1" />
      <stop offset="100%" style="stop-color:#818cf8;stop-opacity:1" />
    </linearGradient>
    <linearGradient id="gradientPurple" x1="0%" y1="0%" x2="100%" y2="100%">
      <stop offset="0%" style="stop-color:#6366f1;stop-opacity:1" />
      <stop offset="50%" style="stop-color:#8b5cf6;stop-opacity:1" />
      <stop offset="100%" style="stop-color:#a78bfa;stop-opacity:1" />
    </linearGradient>
    <linearGradient id="gradientLight" x1="0%" y1="0%" x2="100%" y2="100%">
      <stop offset="0%" style="stop-color:#8b5cf6;stop-opacity:1" />
      <stop offset="50%" style="stop-color:#a78bfa;stop-opacity:1" />
      <stop offset="100%" style="stop-color:#c7d2fe;stop-opacity:1" />
    </linearGradient>
    <filter id="shadow" x="-50%" y="-50%" width="200%" height="200%">
      <feGaussianBlur in="SourceAlpha" stdDeviation="4"/>
      <feOffset dx="2" dy="4" result="offsetblur"/>
      <feComponentTransfer>
        <feFuncA type="linear" slope="0.3"/>
      </feComponentTransfer>
      <feMerge>
        <feMergeNode/>
        <feMergeNode in="SourceGraphic"/>
      </feMerge>
    </filter>
    <filter id="shadowStrong" x="-50%" y="-50%" width="200%" height="200%">
      <feGaussianBlur in="SourceAlpha" stdDeviation="6"/>
      <feOffset dx="3" dy="6" result="offsetblur"/>
      <feComponentTransfer>
        <feFuncA type="linear" slope="0.4"/>
      </feComponentTransfer>
      <feMerge>
        <feMergeNode/>
        <feMergeNode in="SourceGraphic"/>
      </feMerge>
    </filter>
  </defs>
  <g filter="url(#shadow)">
    <path d="M353.5 280.6c-8 0-14.5-6.4-14.5-14.5v-44.8c0-8 6.4-14.5 14.5-14.5 8 0 14.5 6.4 14.5 14.5v44.8c0 8-6.4 14.5-14.5 14.5z" fill="url(#gradientDark)" p-id="4625"></path>
    <path d="M325.8 266.1h55.4v67.5h-55.4v-67.5z" fill="url(#gradientDark)" p-id="4626"></path>
    <path d="M404.1 280.6H302.9c-8 0-14.5-6.4-14.5-14.5 0-8 6.4-14.5 14.5-14.5h101.2c8 0 14.5 6.4 14.5 14.5 0 8-6.4 14.5-14.5 14.5zM619.8 266.1h-73.2c-2.8 0-5.5 1.2-7.3 3.3l-56.8 64.3h147.2v-57.8c-0.1-5.4-4.5-9.8-9.9-9.8z" fill="url(#gradientPrimary)" p-id="4627"></path>
    <path d="M669.3 437.7v-94.3c0-5.3-4.4-9.8-9.8-9.8H286.1c-3.5 0-6.8 1.9-8.5 4.9l-57.1 99.2 199.3 13.5 249.5-13.5z" fill="url(#gradientPurple)" p-id="4628"></path>
    <path d="M580.1 400.2h-3.9c-8 0-14.5-6.4-14.5-14.5 0-8 6.4-14.5 14.5-14.5h3.9c8 0 14.5 6.4 14.5 14.5s-6.6 14.5-14.5 14.5zM457.2 400.2h-3.9c-8 0-14.5-6.4-14.5-14.5 0-8 6.4-14.5 14.5-14.5h3.9c8 0 14.5 6.4 14.5 14.5 0 8-6.4 14.5-14.5 14.5zM334.5 400.2h-3.9c-8 0-14.5-6.4-14.5-14.5 0-8 6.4-14.5 14.5-14.5h3.9c8 0 14.5 6.4 14.5 14.5 0 8-6.5 14.5-14.5 14.5z" fill="#FFFFFF" p-id="4629"></path>
    <path d="M823.6 442.1c-1.9-2.7-4.8-4.3-8.1-4.3h-595L179 509.9h-66.5c-10.8 0-19.5 8.7-19.5 19.5v138.2h754.6l59.5-102-83.5-123.5z" fill="url(#gradientLight)" p-id="4630"></path>
    <path d="M990.3 544.1L890 670.1 755.6 773.4c-7.4 9.3-18.9 14.5-30.8 14.5l-635 9.4c-4.3 0 2 7.2 0.7 3.1l-34.9-68.8L32.4 658c-1.5-4.8 1.9-9.8 6.9-10.1 39.9-2.7 93.2-16.6 116.6-38.8 1.9-1.7 4.1-2.6 6.7-2.6h494c2.9 0 5.7-1.3 7.5-3.5l55.9-68c1.9-2.3 4.6-3.5 7.5-3.5h256.6c6.6-0.2 10.3 7.4 6.2 12.6z" fill="url(#gradientPrimary)" p-id="4631"></path>
    <path d="M818.7 705c-34.6 16.8-72.5 25.5-111.1 25.5H55.3l25.2 79.9c1.3 4 5 6.9 9.3 6.9h664.3c11.9 0 23.1-5.5 30.5-14.7l104.7-131.7c-24 11.4-49.3 23.7-70.6 34.1z" fill="url(#gradientDark)" p-id="4632"></path>
    <path d="M268.9 502.7H265c-8 0-14.5-6.4-14.5-14.5s6.4-14.5 14.5-14.5h3.9c8 0 14.5 6.4 14.5 14.5s-6.4 14.5-14.5 14.5zM392.7 502.7h-3.9c-8 0-14.5-6.4-14.5-14.5s6.5-14.4 14.5-14.4h3.9c8 0 14.5 6.4 14.5 14.5s-6.6 14.4-14.5 14.4zM516.4 502.7h-3.9c-8 0-14.5-6.4-14.5-14.5s6.4-14.5 14.5-14.5h3.9c8 0 14.5 6.4 14.5 14.5s-6.6 14.5-14.5 14.5zM640.1 502.7h-3.9c-8 0-14.5-6.4-14.5-14.5s6.4-14.5 14.5-14.5h3.9c8 0 14.5 6.4 14.5 14.5s-6.6 14.5-14.5 14.5z" fill="#FFFFFF" p-id="4633"></path>
    <path d="M268.9 578.4H265c-8 0-14.5-6.4-14.5-14.5s6.4-14.5 14.5-14.5h3.9c8 0 14.5 6.4 14.5 14.5 0.1 8.1-6.4 14.5-14.5 14.5zM392.7 578.4h-3.9c-8 0-14.5-6.4-14.5-14.5s6.4-14.5 14.5-14.5h3.9c8 0 14.5 6.4 14.5 14.5s-6.6 14.5-14.5 14.5zM516.4 578.4h-3.9c-8 0-14.5-6.4-14.5-14.5s6.4-14.5 14.5-14.5h3.9c8 0 14.5 6.4 14.5 14.5s-6.6 14.5-14.5 14.5zM640.1 578.4h-3.9c-8 0-14.5-6.4-14.5-14.5s6.4-14.5 14.5-14.5h3.9c8 0 14.5 6.4 14.5 14.5s-6.6 14.5-14.5 14.5z" fill="#FFFFFF" p-id="4634"></path>
  </g>
</svg>